<svg xmlns="http://www.w3.org/2000/svg" viewBox="0 0 123.9 171.6"><g fill="#fff"><path d="M82 154.4c2.5-6.1.3-9.5-2.9-12.4-5.3-4.8-16.5-14.4-21.9-19.1-5.4-4.7-8-13-8.7-21.7 10.2 9.2 29.1 26.2 38.4 34.6 3.8 3.5 5 7.9 3.8 12.7-2.1 7.5-5.3 14.1-8 23-4.8-8.7-17.5-32.1-17.5-32.1s.6-.3.7-.3c3.7 3.4 12.2 11 16.1 15.3zM84 108.1c-4.5-3.8-13.3-11-13.3-11-6.2-5.3-6.1-13.3-5.7-14.6 7.4 6.3 12.3 10.3 19.7 16.6.7.6 18 15.5 18 15.5.8-8.7-4.8-20.4-11.6-26.2C82.4 81 25.4 32.3.1 10.8c-1.2 10 4.7 20.2 11.5 25.9 3.1 2.6 38.2 32.2 41.2 34.8 6.7 5.6 6 11.8 5.2 14.2C47.3 76.6 33.6 65 25.7 58.4c-1 10.3 5.3 19.6 12 25.4 11 9.5 31 26.7 42.1 36.1 4.6 3.9 16.3 13.9 16.3 13.9s-2.8-17.7-12.1-25.7zM118.1 47.1c-3.2-1.4-6.8-2.5-9.4-4.7-3.6-3.1-7.6-4.2-12.1-4.3-8.9-.2-17.9-.1-25.3-6.3 1.6 6.8 6.2 10.7 12.2 13.2-4.9 2.9-8.3 9.6-8.4 10.5.8-9.7-23-28.2-23-28.2C41.2 18.3 30.7 9.1 20 0c-2.5 9.2 4 22.6 11.7 29.9 16.1 13.9 26.6 21.4 42.8 35.2 5.1 4.3 10.3 8.6 15.8 13.1 0-1.6 0-2.4.2-3.7 1.4-8.8 2.2-13.6 9.9-18.4 7.3-4.6 15.3-4.4 23.5-2.9-.7-3.2-2.9-4.8-5.8-6.1z"/></g></svg>