<?xml version="1.0" standalone="no"?>
<!DOCTYPE svg PUBLIC "-//W3C//DTD SVG 20010904//EN"
 "http://www.w3.org/TR/2001/REC-SVG-20010904/DTD/svg10.dtd">
<svg version="1.0" xmlns="http://www.w3.org/2000/svg"
 width="1568.000000pt" height="1568.000000pt" viewBox="0 0 1568.000000 1568.000000"
 preserveAspectRatio="xMidYMid meet">
<metadata>
Created by potrace 1.11, written by Peter Selinger 2001-2013
</metadata>
<g transform="translate(0.000000,1568.000000) scale(0.100000,-0.100000)"
fill="#000000" stroke="none">
<path d="M7749 11948 c-46 -50 -102 -110 -124 -134 -37 -39 -179 -192 -240
-259 -16 -16 -60 -64 -99 -106 -39 -42 -96 -103 -126 -136 -175 -189 -270
-291 -305 -329 -22 -23 -62 -66 -89 -95 -65 -72 -244 -265 -279 -302 -27 -28
-28 -30 -10 -47 10 -9 63 -66 118 -125 55 -59 118 -127 140 -150 22 -23 77
-82 122 -131 45 -49 107 -116 139 -149 77 -81 177 -188 310 -331 62 -65 129
-138 150 -160 22 -23 86 -92 144 -154 58 -62 121 -130 140 -150 19 -21 82 -88
140 -150 58 -62 113 -121 122 -131 17 -18 20 -16 70 38 29 31 67 71 83 88 17
18 75 81 130 140 55 59 120 130 145 156 25 26 81 87 125 134 44 48 100 109
125 135 25 27 88 94 140 150 52 57 109 117 125 135 17 17 73 78 125 134 90 98
122 131 233 249 26 28 47 54 47 59 0 4 -23 32 -50 62 -28 29 -50 55 -50 56 0
2 -17 21 -37 43 -21 22 -60 65 -88 97 -60 70 -65 75 -137 156 -31 35 -66 75
-77 88 -28 32 -129 146 -161 181 -14 15 -50 56 -80 90 -30 35 -59 68 -65 74
-5 6 -41 47 -80 91 -38 44 -80 91 -93 105 -12 14 -28 32 -36 40 -7 8 -53 60
-101 115 -49 55 -93 105 -99 111 -6 6 -31 35 -56 64 -25 29 -52 60 -60 69 -9
9 -47 52 -85 96 -39 43 -87 97 -107 119 -21 23 -38 44 -38 48 0 20 -24 1 -101
-84z"/>
<path d="M6210 10298 c-41 -45 -101 -108 -132 -141 -32 -33 -58 -61 -58 -63 0
-2 -17 -21 -37 -42 -21 -20 -69 -71 -108 -113 -217 -234 -295 -317 -340 -365
-27 -29 -88 -94 -135 -145 -47 -51 -103 -111 -125 -134 -34 -36 -111 -119
-284 -304 -18 -20 -77 -83 -130 -140 -53 -57 -114 -123 -136 -146 -22 -23 -83
-88 -135 -144 -52 -57 -111 -120 -130 -141 -19 -20 -85 -91 -146 -156 -61 -66
-140 -150 -175 -188 -35 -38 -86 -93 -114 -122 -27 -29 -74 -79 -104 -111 -80
-87 -249 -268 -311 -334 -30 -32 -86 -93 -125 -135 -38 -42 -88 -95 -110 -118
-42 -44 -236 -252 -294 -315 -18 -20 -84 -90 -146 -156 -62 -66 -124 -133
-139 -150 -24 -26 -192 -206 -266 -285 -14 -15 -72 -78 -130 -140 -58 -62
-121 -130 -140 -150 -19 -20 -82 -87 -140 -150 -58 -62 -118 -128 -135 -145
-16 -18 -79 -85 -140 -150 -60 -65 -126 -135 -145 -155 -36 -37 -222 -238
-273 -294 -16 -17 -75 -80 -132 -141 -57 -60 -117 -126 -135 -145 -18 -19 -84
-91 -148 -159 -65 -68 -124 -132 -134 -143 -9 -10 -67 -73 -130 -140 -62 -66
-133 -142 -158 -169 -25 -26 -85 -91 -135 -145 -96 -103 -100 -107 -271 -290
-61 -66 -125 -135 -143 -154 l-31 -35 1557 -3 1557 -2 34 37 c19 21 84 92 146
157 61 66 138 148 171 184 33 35 78 83 100 106 22 24 71 76 109 117 38 41 114
123 170 183 55 59 118 127 140 150 21 22 86 93 146 156 59 63 120 129 135 145
26 29 213 229 285 305 19 20 78 83 130 140 52 57 111 120 130 140 35 36 219
234 280 300 122 132 254 273 303 323 31 32 57 60 57 62 0 2 24 28 53 58 28 30
90 96 137 147 47 51 105 114 130 140 25 26 95 100 155 165 61 65 127 136 148
159 21 22 82 87 135 144 53 58 117 126 142 152 25 27 90 96 145 156 55 59 117
126 138 148 22 23 80 86 130 140 51 55 115 123 142 151 28 29 86 92 130 140
44 48 113 122 153 164 40 42 89 94 109 116 19 22 88 96 152 164 158 169 263
281 281 301 8 9 37 40 63 68 l48 52 -23 23 c-13 13 -64 68 -114 123 -51 54
-107 115 -125 135 -19 19 -81 87 -139 149 -58 62 -125 134 -148 159 -24 25
-81 86 -125 134 -45 49 -100 108 -122 132 -63 67 -234 251 -410 441 -60 65
-134 143 -162 173 -29 30 -53 55 -53 56 0 5 -136 145 -140 145 -3 0 -39 -37
-80 -82z"/>
<path d="M9528 9998 c-31 -35 -78 -85 -104 -113 -25 -27 -97 -104 -158 -169
-61 -66 -131 -141 -156 -167 -25 -26 -69 -73 -98 -106 -30 -32 -84 -90 -120
-128 -37 -39 -119 -127 -182 -195 -63 -68 -128 -138 -145 -155 -66 -71 -242
-260 -278 -299 -22 -23 -85 -90 -140 -150 -105 -112 -115 -123 -227 -242 -36
-38 -79 -86 -97 -106 -17 -20 -34 -34 -37 -31 -3 4 -6 2 -6 -4 0 -6 -24 -35
-52 -66 -29 -30 -93 -99 -143 -153 -49 -53 -110 -119 -135 -145 -51 -53 -217
-231 -306 -328 -33 -35 -80 -86 -106 -114 -27 -27 -48 -54 -48 -58 0 -5 -7 -9
-15 -9 -8 0 -15 -3 -15 -8 0 -4 -31 -41 -70 -81 -38 -41 -70 -75 -70 -77 0 -1
-21 -24 -47 -52 -43 -44 -203 -214 -293 -312 -135 -146 -243 -261 -293 -314
-33 -33 -90 -96 -129 -138 -38 -42 -91 -99 -116 -125 -26 -27 -76 -80 -112
-119 -67 -72 -265 -284 -335 -359 -22 -23 -85 -91 -140 -150 -55 -59 -122
-131 -150 -161 -27 -29 -88 -94 -135 -145 -47 -50 -109 -116 -137 -146 -29
-30 -53 -56 -53 -58 0 -1 -30 -34 -68 -72 -37 -39 -91 -97 -121 -129 -29 -32
-106 -115 -171 -184 -65 -69 -132 -141 -150 -160 -67 -73 -227 -244 -265 -285
-22 -23 -69 -73 -105 -112 -174 -187 -272 -292 -314 -338 -45 -48 -46 -50 -24
-56 13 -3 40 -2 61 2 21 3 37 2 37 -3 0 -5 4 -7 9 -3 9 5 140 9 166 5 6 -1 35
-1 65 0 30 0 62 1 70 1 80 -1 162 -1 168 0 4 1 12 0 17 -1 20 -4 117 -2 121 3
3 3 19 1 37 -3 18 -4 41 -4 52 0 11 4 33 4 50 0 17 -4 40 -4 50 0 11 4 29 4
40 0 11 -4 32 -4 48 1 15 4 27 5 27 1 0 -8 178 -7 186 1 3 2 20 1 39 -3 19 -4
36 -5 39 -3 7 7 106 9 106 3 0 -3 32 -3 70 0 39 3 70 3 70 0 0 -3 24 -4 52 -3
29 1 64 2 78 2 14 0 41 1 60 2 36 1 50 1 110 0 38 -1 60 -1 105 0 17 0 37 0
45 0 30 -1 193 0 199 1 3 0 11 -1 16 -2 6 -1 34 -2 62 -2 57 0 49 -6 218 178
17 18 76 81 132 141 115 122 140 150 273 293 52 56 115 124 140 150 101 107
266 284 283 304 10 12 72 77 136 146 65 69 130 138 144 153 31 34 226 243 282
302 22 24 85 91 139 149 l99 107 41 -44 c74 -80 202 -221 252 -277 61 -67 141
-156 174 -191 14 -15 52 -57 85 -94 33 -37 80 -89 105 -116 25 -26 72 -78 105
-115 33 -37 71 -79 85 -94 14 -15 57 -63 95 -105 39 -43 88 -97 110 -121 22
-23 64 -70 94 -103 29 -33 67 -76 85 -94 17 -19 65 -71 106 -117 41 -45 88
-96 103 -113 16 -17 56 -62 90 -100 34 -38 78 -87 98 -108 20 -22 53 -57 72
-78 36 -40 77 -68 77 -54 0 4 29 8 65 8 36 0 65 -2 65 -5 0 -3 24 -4 52 -3 29
1 64 2 78 2 14 0 41 1 60 2 36 1 50 1 110 0 40 -1 63 -1 105 0 17 0 39 0 50
-1 28 -2 32 -2 103 0 35 1 66 0 69 -3 3 -3 15 -2 27 2 11 5 30 5 41 1 11 -4
32 -4 48 1 15 4 27 5 27 1 0 -8 178 -7 186 1 3 2 20 1 39 -3 19 -4 36 -5 39
-3 7 7 106 9 106 3 0 -3 32 -3 70 0 39 3 70 3 70 0 0 -3 24 -4 52 -3 29 1 64
2 78 2 14 0 39 1 55 1 17 0 39 2 50 4 11 1 33 0 50 -4 17 -4 40 -4 50 0 11 4
29 4 40 0 11 -4 31 -4 45 0 14 4 33 4 44 0 10 -3 39 -3 65 0 25 3 61 3 79 -1
18 -4 34 -3 37 1 3 4 21 4 40 0 19 -4 37 -4 40 0 2 4 22 5 42 1 21 -3 59 -4
85 -1 l48 5 -38 41 c-20 22 -66 74 -102 114 -36 41 -83 93 -105 117 -22 23
-47 51 -55 61 -8 11 -51 59 -95 108 -44 48 -94 104 -112 123 -18 20 -59 65
-91 101 -33 36 -75 83 -93 104 -19 22 -45 52 -59 67 -58 63 -86 94 -111 125
-14 18 -29 31 -33 27 -3 -3 -6 0 -6 7 0 7 -8 20 -17 29 -10 9 -38 39 -63 66
-25 28 -77 87 -117 130 -39 44 -80 89 -90 101 -85 98 -133 151 -163 183 -19
21 -64 70 -100 111 -36 40 -76 85 -90 100 -24 26 -138 153 -171 191 -8 9 -46
52 -85 95 -38 42 -87 97 -109 122 -22 24 -49 54 -60 66 -11 12 -49 55 -85 95
-36 41 -77 86 -91 102 -14 15 -52 58 -85 95 -32 37 -75 84 -95 105 -20 21 -60
66 -90 100 -30 34 -72 81 -94 105 -22 24 -60 66 -85 95 -25 28 -58 66 -75 84
-50 54 -161 178 -187 209 l-25 30 41 42 c36 37 89 94 251 268 22 24 90 97 151
162 61 66 126 135 144 154 17 19 78 85 135 145 57 61 118 126 135 145 18 19
81 87 140 150 60 63 123 131 140 150 30 33 197 211 285 304 22 24 87 94 145
156 116 125 135 145 199 212 l43 46 -78 83 c-44 45 -115 120 -159 166 -45 45
-80 83 -79 83 1 0 -30 33 -69 74 -40 40 -142 146 -227 236 -85 89 -180 188
-210 220 -30 31 -122 128 -204 214 -82 86 -155 156 -161 156 -6 0 -36 -28 -67
-62z"/>
<path d="M10970 8569 c-25 -28 -63 -70 -85 -93 -22 -24 -74 -80 -115 -126 -41
-45 -93 -101 -115 -124 -22 -23 -80 -87 -130 -141 -49 -54 -103 -113 -120
-130 -48 -52 -210 -228 -334 -363 -42 -46 -94 -103 -116 -126 -22 -24 -80 -87
-130 -141 -49 -54 -108 -117 -130 -140 -22 -24 -74 -81 -115 -126 -41 -46 -83
-91 -92 -101 -25 -26 -23 -33 25 -82 38 -40 87 -91 294 -315 37 -40 96 -102
129 -137 34 -35 61 -64 59 -64 -1 0 27 -30 62 -67 36 -37 97 -102 136 -146 40
-43 97 -104 127 -136 30 -32 102 -108 160 -171 58 -62 121 -130 140 -150 30
-32 186 -199 274 -294 15 -17 81 -87 146 -156 65 -69 132 -141 150 -160 17
-19 57 -62 88 -96 32 -33 104 -111 162 -173 58 -62 127 -136 154 -164 26 -29
94 -101 150 -161 55 -60 121 -131 146 -157 25 -26 88 -93 140 -150 52 -57 112
-121 134 -143 21 -23 82 -88 135 -145 53 -57 128 -137 166 -177 l70 -74 1569
2 1569 3 -54 57 c-30 31 -97 103 -149 159 -52 57 -120 129 -150 161 -30 31
-95 101 -145 154 -49 53 -107 115 -128 138 -22 23 -80 85 -130 140 -51 54
-110 118 -132 141 -22 23 -89 95 -150 160 -60 65 -130 139 -153 164 -24 25
-83 88 -130 139 -48 52 -105 113 -127 136 -22 23 -89 95 -150 160 -60 65 -130
140 -155 166 -83 88 -247 265 -280 300 -27 30 -173 185 -299 319 -18 20 -72
78 -120 129 -47 52 -106 115 -131 141 -25 26 -76 82 -115 123 -38 41 -120 129
-181 194 -62 65 -126 135 -144 154 -42 45 -233 250 -331 354 -123 131 -149
159 -249 267 -52 57 -111 119 -130 139 -19 20 -64 67 -99 106 -36 38 -114 122
-175 188 -61 65 -124 133 -141 151 -16 17 -82 88 -147 156 -121 129 -142 152
-272 293 -44 47 -82 86 -85 86 -3 -1 -26 -24 -51 -51z"/>
</g>
</svg>
